<?xml version="1.0" standalone="no"?>
<!DOCTYPE svg PUBLIC "-//W3C//DTD SVG 20010904//EN"
 "http://www.w3.org/TR/2001/REC-SVG-20010904/DTD/svg10.dtd">
<svg version="1.0" xmlns="http://www.w3.org/2000/svg"
 width="1280.000000pt" height="818.000000pt" viewBox="0 0 1280.000000 818.000000"
 preserveAspectRatio="xMidYMid meet">
<metadata>
Created by potrace 1.15, written by Peter Selinger 2001-2017
</metadata>
<g transform="translate(0.000000,818.000000) scale(0.100000,-0.100000)"
fill="#000000" stroke="none">
<path d="M5596 8165 c-22 -8 -51 -23 -66 -33 -40 -30 -99 -57 -175 -81 -78
-25 -102 -42 -121 -86 -18 -45 -30 -155 -15 -155 6 0 11 5 11 10 0 6 5 10 10
10 6 0 10 -15 10 -34 0 -19 9 -78 20 -131 28 -136 27 -161 -10 -193 -16 -15
-30 -35 -30 -46 0 -11 18 -45 39 -76 22 -31 43 -70 47 -86 4 -16 16 -46 27
-67 13 -25 17 -48 13 -70 -8 -44 5 -59 56 -66 41 -6 43 -8 46 -43 5 -63 -30
-90 -203 -154 -177 -66 -221 -89 -270 -146 -78 -92 -212 -435 -301 -776 -41
-155 -42 -222 -6 -272 26 -34 28 -50 7 -50 -36 0 -51 -56 -195 -739 -38 -178
-74 -329 -80 -335 -14 -13 -26 2 -75 89 -23 41 -62 158 -125 375 -190 656
-404 1253 -483 1346 -34 41 -122 86 -229 118 -65 20 -90 33 -103 53 -19 29
-21 80 -5 133 17 58 12 124 -26 313 -86 438 -190 665 -338 736 -45 22 -169 51
-220 51 -46 0 -117 -39 -218 -120 -91 -73 -133 -129 -150 -203 -6 -24 -11
-221 -12 -453 l-1 -410 -24 -35 c-39 -58 -76 -77 -241 -125 -101 -30 -156 -60
-200 -110 -48 -55 -59 -90 -80 -257 -56 -433 -78 -739 -90 -1217 -7 -296 -13
-388 -30 -490 -27 -156 -38 -440 -20 -494 6 -20 32 -56 56 -80 49 -48 51 -60
28 -114 -9 -20 -20 -83 -24 -140 -7 -97 -10 -107 -45 -158 -69 -100 -171 -171
-226 -157 -30 8 -74 36 -119 79 -48 46 -117 73 -204 83 -84 10 -122 28 -154
76 -50 72 -33 138 43 169 18 8 40 25 48 38 22 33 40 165 41 303 1 145 -11 173
-106 259 -136 122 -298 173 -403 127 -58 -26 -163 -110 -244 -196 -82 -88 -93
-135 -64 -273 38 -179 83 -263 173 -329 79 -57 81 -60 78 -106 l-3 -41 -79
-22 c-43 -12 -90 -31 -105 -41 -40 -30 -88 -53 -110 -53 -39 0 -78 -47 -116
-143 -20 -50 -70 -162 -109 -247 -95 -203 -100 -214 -93 -255 7 -46 84 -160
142 -214 60 -55 117 -81 182 -81 30 0 55 -5 60 -12 4 -7 7 -184 5 -393 -3
-387 0 -437 43 -788 21 -172 20 -264 -6 -329 -49 -125 -45 -201 27 -445 39
-132 47 -174 49 -253 2 -52 3 -98 4 -102 0 -5 2765 -7 6144 -5 l6142 2 3 456
c2 375 0 458 -11 468 -11 8 -124 -1 -458 -39 -244 -27 -604 -66 -799 -87
l-355 -37 -405 3 c-400 2 -534 -5 -782 -39 -113 -16 -769 -79 -879 -85 -57 -3
-141 -8 -186 -10 l-83 -5 0 36 c0 20 11 147 25 283 13 135 29 318 36 406 6 88
13 162 16 165 6 7 166 18 269 19 l82 1 6 64 c7 56 1 86 -48 282 -31 120 -92
348 -135 506 -44 158 -85 321 -92 363 -15 93 -7 213 21 320 52 203 64 453 34
700 -22 180 -22 224 0 260 l18 31 -85 179 c-100 212 -135 317 -187 560 -95
441 -122 524 -199 607 -85 92 -195 126 -306 93 -149 -43 -220 -108 -254 -233
-26 -97 -51 -266 -51 -352 0 -58 4 -70 34 -113 34 -47 56 -118 56 -176 0 -50
-27 -70 -123 -91 -49 -11 -104 -29 -122 -40 -66 -41 -227 -230 -240 -281 -4
-16 2 -53 14 -94 12 -37 21 -81 21 -97 0 -37 -53 -140 -96 -185 -36 -37 -63
-41 -123 -17 -79 31 -75 2 -82 614 -6 620 -5 609 -93 905 -29 99 -57 194 -60
211 -7 33 -9 30 92 114 12 10 22 29 22 43 0 92 -295 838 -374 945 -71 98 -175
159 -441 262 -147 56 -222 102 -265 162 -41 56 -40 97 4 145 61 69 65 88 46
237 -6 45 -20 160 -31 256 -24 211 -33 249 -65 284 -14 14 -57 43 -97 63 -194
97 -370 134 -471 98z m-1962 -2807 c132 -406 241 -712 272 -766 15 -25 61 -82
104 -128 82 -89 126 -162 185 -312 20 -51 55 -124 77 -163 33 -57 43 -89 58
-174 20 -123 34 -145 92 -145 43 0 123 36 153 70 11 12 48 42 82 67 34 24 65
53 68 64 6 18 -4 86 -26 174 -6 22 -26 64 -46 94 -64 98 -67 274 -6 366 15 23
53 80 84 126 111 165 161 286 299 717 101 314 131 370 143 260 3 -29 11 -84
17 -123 9 -54 9 -113 -1 -253 -14 -215 -9 -343 25 -582 54 -379 55 -502 8
-735 -38 -185 -37 -406 1 -620 51 -288 61 -407 132 -1510 35 -539 35 -545 55
-591 22 -52 55 -226 47 -248 -4 -9 -26 -25 -49 -35 -66 -28 -71 -38 -63 -130
7 -75 6 -79 -18 -102 -14 -13 -39 -61 -57 -106 -36 -94 -68 -128 -132 -138
-70 -11 -104 -39 -138 -111 -36 -75 -47 -79 -153 -70 -53 5 -176 -4 -462 -33
-476 -49 -619 -61 -746 -61 -90 0 -100 2 -127 25 -40 33 -62 101 -69 205 -6
98 3 154 123 715 41 193 81 395 89 450 21 142 18 313 -6 508 -12 94 -17 172
-13 177 5 4 81 20 169 35 253 44 394 86 415 126 17 32 11 161 -14 269 -27 117
-152 510 -379 1190 l-152 455 -1 145 -1 145 -50 155 c-84 255 -125 465 -127
640 -1 101 20 260 34 260 3 0 51 -136 104 -302z m3175 162 c40 -21 55 -62 62
-170 6 -86 15 -126 49 -224 87 -246 139 -478 159 -716 11 -122 6 -168 -26
-222 -35 -60 -86 -42 -136 50 -38 69 -52 136 -86 392 -32 242 -46 416 -57 713
-7 196 -6 200 35 177z m-4551 -123 c30 -36 42 -133 42 -340 0 -236 -12 -319
-63 -432 l-32 -70 3 -254 c2 -188 -1 -289 -13 -385 -20 -166 -37 -248 -51
-253 -27 -9 -71 47 -95 119 -40 125 -34 224 49 808 78 544 110 762 119 798 6
25 25 29 41 9z m5612 -1512 c24 -48 25 -58 25 -225 0 -148 -5 -198 -28 -325
-54 -292 -102 -472 -237 -895 -69 -215 -72 -231 -80 -360 -7 -112 -14 -150
-41 -225 -24 -70 -30 -98 -25 -133 10 -70 13 -72 150 -72 209 0 279 -19 319
-88 27 -45 32 -195 13 -414 -12 -150 -13 -199 -3 -250 29 -154 -1 -251 -99
-314 -78 -51 -104 -79 -104 -112 0 -19 -6 -32 -17 -36 -26 -11 -392 -20 -455
-12 -79 10 -107 40 -143 151 -20 63 -37 96 -61 120 -39 40 -38 28 -18 175 16
121 15 234 -7 730 -26 596 -43 835 -114 1612 -36 390 -39 453 -29 557 5 47 13
67 32 86 32 32 51 29 78 -15 48 -74 75 -100 126 -115 35 -10 56 -12 68 -5 26
14 26 14 67 -24 112 -101 254 -113 353 -30 16 14 61 81 102 150 48 83 78 124
88 122 8 -2 26 -25 40 -53z m950 -190 c8 -69 0 -295 -10 -295 -12 0 -68 132
-75 178 -8 52 10 132 37 168 27 34 40 20 48 -51z m-6725 -452 c22 -21 18 -52
-36 -277 -22 -94 -49 -225 -58 -291 -12 -79 -26 -135 -42 -165 -19 -36 -24
-64 -27 -140 -3 -68 0 -100 10 -113 13 -18 52 -21 432 -41 49 -3 93 -9 98 -14
6 -6 1 -68 -12 -163 -26 -181 -28 -342 -6 -519 8 -69 24 -237 36 -375 11 -137
30 -317 43 -400 12 -85 22 -197 22 -260 l0 -110 -55 -104 c-72 -136 -75 -137
-296 -157 -261 -23 -553 -44 -619 -44 -60 0 -62 1 -110 51 -56 57 -92 79 -130
79 -42 0 -103 37 -132 81 -20 31 -27 54 -27 94 -1 62 15 86 74 105 74 24 71
13 81 367 4 175 13 671 19 1101 6 431 15 794 20 807 6 16 49 42 152 93 182 90
262 151 361 278 42 54 84 107 92 117 19 23 88 23 110 0z m4144 -355 c65 -200
159 -484 207 -633 l88 -270 1 -125 c0 -98 -6 -147 -25 -230 -22 -93 -24 -127
-24 -300 1 -348 13 -659 28 -693 7 -18 34 -66 60 -107 25 -41 46 -82 46 -93 0
-25 -71 -55 -162 -68 -116 -16 -555 -23 -605 -10 -38 11 -43 15 -43 42 0 16
22 73 50 127 27 53 55 122 61 152 9 42 9 192 -1 645 -7 325 -11 649 -9 720 l5
130 52 111 c82 172 85 201 78 593 -5 302 -4 336 11 353 9 10 26 18 39 18 21 0
32 -26 143 -362z m-3063 -643 c25 -39 28 -161 9 -398 -22 -274 -17 -464 15
-592 21 -83 23 -112 23 -390 1 -370 -7 -428 -68 -550 -61 -121 -109 -185 -138
-185 -13 0 -44 13 -69 29 -62 40 -93 105 -113 242 -36 254 -30 484 25 904 46
348 53 453 46 640 -4 94 -9 198 -13 232 l-6 61 44 6 c24 3 82 9 129 14 47 5
88 10 92 11 4 0 15 -10 24 -24z m5325 -1132 c-2 -294 1 -450 10 -517 16 -122
8 -146 -50 -146 -74 0 -174 49 -191 95 -5 14 -4 45 5 81 8 36 15 156 18 304 6
258 30 558 48 591 9 17 19 19 86 17 l77 -3 -3 -422z m-7579 -734 c3 -24 7 -72
7 -105 1 -79 -11 -91 -67 -69 -46 19 -78 70 -66 107 9 29 94 120 108 115 6 -2
14 -24 18 -48z"/>
</g>
</svg>
